<?xml version="1.0" encoding="UTF-8"?>
<svg width="35px" height="33px" viewBox="0 0 35 33" version="1.1" xmlns="http://www.w3.org/2000/svg" xmlns:xlink="http://www.w3.org/1999/xlink">
    <!-- Generator: Sketch 42 (36781) - http://www.bohemiancoding.com/sketch -->
    <title>twitter</title>
    <desc>Created with Sketch.</desc>
    <defs></defs>
    <g id="Page-1" stroke="none" stroke-width="1" fill="none" fill-rule="evenodd">
        <g id="Contato" transform="translate(-140.000000, -467.000000)">
            <g id="twitter" transform="translate(140.000000, 467.000000)">
                <g id="Capa_1">
                    <g id="Group">
                        <ellipse id="Oval" fill="#9B9B9B" cx="17.2051362" cy="16.1963467" rx="17.2048295" ry="16.1963467"></ellipse>
                        <path d="M27.7436999,11.639843 C27.0064114,11.9476135 26.2133049,12.1557772 25.3815552,12.2487435 C26.2307864,11.7697649 26.8825077,11.0118874 27.1901202,10.1073426 C26.3954802,10.5510979 25.5149663,10.8730154 24.5786345,11.0465333 C23.8284649,10.2944301 22.7596419,9.8244017 21.576116,9.8244017 C19.3053656,9.8244017 17.4636778,11.5581366 17.4636778,13.6957842 C17.4636778,13.9992239 17.5001742,14.2945795 17.5707135,14.5780979 C14.1529335,14.4167061 11.1225061,12.8755442 9.09404262,10.5326202 C8.74011961,11.1042763 8.53708925,11.7697649 8.53708925,12.4791382 C8.53708925,13.8219527 9.26364351,15.0074174 10.3665093,15.7014888 C9.69270616,15.6815675 9.05815961,15.5074722 8.50396647,15.216736 C8.50365978,15.2331927 8.50365978,15.2496495 8.50365978,15.2658176 C8.50365978,17.1416004 9.92180537,18.7061482 11.8027498,19.0615566 C11.4580275,19.1504809 11.0939837,19.1975415 10.7195123,19.1975415 C10.4539167,19.1975415 10.1966018,19.1735781 9.94572738,19.1285386 C10.4689446,20.6662359 11.9873786,21.7855848 13.7873562,21.8170548 C12.3796382,22.8555634 10.6066495,23.4742801 8.67939452,23.4742801 C8.34816674,23.4742801 8.02000589,23.4560911 7.69889896,23.4200017 C9.5178915,24.5188518 11.6800728,25.1595109 14.0023476,25.1595109 C21.5666086,25.1595109 25.7032755,19.2604814 25.7032755,14.1441589 C25.7032755,13.9764154 25.6992885,13.8092492 25.6913145,13.6435267 C26.4954619,13.0978549 27.1925737,12.4161983 27.7436999,11.639843 L27.7436999,11.639843 Z" id="Shape" fill="#F1F2F2"></path>
                    </g>
                </g>
            </g>
        </g>
    </g>
</svg>