<?xml version="1.0" encoding="UTF-8"?>
<svg width="35px" height="33px" viewBox="0 0 35 33" version="1.1" xmlns="http://www.w3.org/2000/svg" xmlns:xlink="http://www.w3.org/1999/xlink">
    <!-- Generator: Sketch 42 (36781) - http://www.bohemiancoding.com/sketch -->
    <title>instagram</title>
    <desc>Created with Sketch.</desc>
    <defs></defs>
    <g id="Page-1" stroke="none" stroke-width="1" fill="none" fill-rule="evenodd">
        <g id="Contato" transform="translate(-93.000000, -467.000000)" fill="#9B9B9B">
            <g id="instagram" transform="translate(93.000000, 467.000000)">
                <g id="Layer_1">
                    <g id="Group">
                        <path d="M22.4322138,8.65645238 L12.1308391,8.65645238 C10.486593,8.65645238 9.14886218,9.91577045 9.14886218,11.4636369 L9.14886218,21.1611836 C9.14886218,22.7090501 10.486593,23.9687306 12.1308391,23.9687306 L22.4322138,23.9687306 C24.0764598,23.9687306 25.4145757,22.7094126 25.4145757,21.1611836 L25.4145757,11.4636369 C25.4145757,9.91577045 24.0768449,8.65645238 22.4322138,8.65645238 Z M17.2815264,21.3533075 C14.3291999,21.3533075 11.9271374,19.092045 11.9271374,16.3124103 C11.9271374,13.533138 14.3291999,11.2718755 17.2815264,11.2718755 C20.234238,11.2718755 22.6363005,13.533138 22.6363005,16.3124103 C22.6363005,19.0916825 20.233853,21.3533075 17.2815264,21.3533075 Z M22.8084265,12.3140573 C22.1095257,12.3140573 21.5411633,11.7790102 21.5411633,11.1214388 C21.5411633,10.4638674 22.1095257,9.92882038 22.8084265,9.92882038 C23.5069422,9.92882038 24.0753046,10.4638674 24.0753046,11.1214388 C24.0753046,11.7790102 23.5069422,12.3140573 22.8084265,12.3140573 Z" id="Shape"></path>
                        <path d="M17.2815264,13.4019138 C15.5772096,13.4019138 14.1894197,14.7076316 14.1894197,16.3120478 C14.1894197,17.9171889 15.5772096,19.2232692 17.2815264,19.2232692 C18.9866134,19.2232692 20.373248,17.9171889 20.373248,16.3120478 C20.373248,14.7079941 18.9862283,13.4019138 17.2815264,13.4019138 Z" id="Shape"></path>
                        <path d="M17.2815264,0 C7.73758309,0 0,7.28403493 0,16.268548 C0,25.2530611 7.73758309,32.537096 17.2815264,32.537096 C26.8254697,32.537096 34.5630528,25.2530611 34.5630528,16.268548 C34.5630528,7.28403493 26.8254697,0 17.2815264,0 Z M27.676858,21.1611836 C27.676858,23.8839061 25.3244695,26.0984064 22.4322138,26.0984064 L12.1308391,26.0984064 C9.23896841,26.0984064 6.88619481,23.8839061 6.88619481,21.1611836 L6.88619481,11.4636369 C6.88619481,8.74127691 9.23896841,6.52641409 12.1308391,6.52641409 L22.4322138,6.52641409 C25.3244695,6.52641409 27.676858,8.74127691 27.676858,11.4636369 L27.676858,21.1611836 Z" id="Shape"></path>
                    </g>
                </g>
            </g>
        </g>
    </g>
</svg>